# xmcd
#
# Track frame offsets:
#	150
#	22321
#	43077
#	55897
#	80104
#	101994
#	127512
#	153068
#	171375
#	197871
#	212527
#	240354
#	265257
#	295368
#	324170
#
# Disc length: 4552 seconds
#
# Revision: 0
# Processed by: cddbd v1.5.2PL0 Copyright (c) Steve Scherf et al.
# Submitted via: EZCDAudioConverter 8.0.2.1
#
DISCID=d311c60f
DTITLE=Various Artist -  20th Ben Thanh Audio Video's Anniversary [CD4)
DYEAR=2010
DGENRE=
TTITLE0=Cẩm Ly, Quốc Đại - Lâu đài tình ái
TTITLE1=Quang Linh - Đà lạt hoàng hôn
TTITLE2=Hồng Ngọc - Dừng bước giang hồ
TTITLE3=Quang Dũng - Hướng về Hà Nội
TTITLE4=Hiền Thục - Tuổi ngọc
TTITLE5=Xuân Phú - Chiều nay không có em
TTITLE6=Lệ Quyên - Niệm khúc cuối
TTITLE7=Mỹ Hạnh - Biệt Ly
TTITLE8=Mỹ Tâm - Làng tôi
TTITLE9=AC&M - Bánh xe lãng tử
TTITLE10=Ánh Tuyết - Buồn tàn tro
TTITLE11=Nhã Phương - Thương về miền Trung
TTITLE12=Ngọc Ánh - Đêm tàn bến Ngự
TTITLE13=Cẩm Ly, Quang Linh - Chuyện tình Lan và Điệp
TTITLE14=Quốc Đại - Túp lều lý tưởng
EXTD=
EXTT0=
EXTT1=
EXTT2=
EXTT3=
EXTT4=
EXTT5=
EXTT6=
EXTT7=
EXTT8=
EXTT9=
EXTT10=
EXTT11=
EXTT12=
EXTT13=
EXTT14=
PLAYORDER=
